<svg xmlns="http://www.w3.org/2000/svg" class="uil-ring" viewBox="0 0 100 100" preserveAspectRatio="xMidYMid meet" width="120px" height="120px"><rect class="bk" fill="none" x="0" y="0" width="100" height="100" /><defs><filter id="uil-ring-shadow" x="-100%" y="-100%" width="300%" height="300%"><feOffset result="offOut" in="SourceGraphic" dx="0" dy="0" /><feGaussianBlur result="blurOut" in="offOut" stdDeviation="0" /><feBlend in="SourceGraphic" in2="blurOut" mode="normal" /></filter></defs><path filter="url(&quot;#uil-ring-shadow&quot;)" fill="#ffffff" d="M 10 50 c 0 0 0 0.5 0.1 1.4 c 0 0.5 0.1 1 0.2 1.7 c 0 0.3 0.1 0.7 0.1 1.1 c 0.1 0.4 0.1 0.8 0.2 1.2 c 0.2 0.8 0.3 1.8 0.5 2.8 c 0.3 1 0.6 2.1 0.9 3.2 c 0.3 1.1 0.9 2.3 1.4 3.5 c 0.5 1.2 1.2 2.4 1.8 3.7 c 0.3 0.6 0.8 1.2 1.2 1.9 c 0.4 0.6 0.8 1.3 1.3 1.9 c 1 1.2 1.9 2.6 3.1 3.7 c 2.2 2.5 5 4.7 7.9 6.7 c 3 2 6.5 3.4 10.1 4.6 c 3.6 1.1 7.5 1.5 11.2 1.6 c 4 -0.1 7.7 -0.6 11.3 -1.6 c 3.6 -1.2 7 -2.6 10 -4.6 c 3 -2 5.8 -4.2 7.9 -6.7 c 1.2 -1.2 2.1 -2.5 3.1 -3.7 c 0.5 -0.6 0.9 -1.3 1.3 -1.9 c 0.4 -0.6 0.8 -1.3 1.2 -1.9 c 0.6 -1.3 1.3 -2.5 1.8 -3.7 c 0.5 -1.2 1 -2.4 1.4 -3.5 c 0.3 -1.1 0.6 -2.2 0.9 -3.2 c 0.2 -1 0.4 -1.9 0.5 -2.8 c 0.1 -0.4 0.1 -0.8 0.2 -1.2 c 0 -0.4 0.1 -0.7 0.1 -1.1 c 0.1 -0.7 0.1 -1.2 0.2 -1.7 C 90 50.5 90 50 90 50 s 0 0.5 0 1.4 c 0 0.5 0 1 0 1.7 c 0 0.3 0 0.7 0 1.1 c 0 0.4 -0.1 0.8 -0.1 1.2 c -0.1 0.9 -0.2 1.8 -0.4 2.8 c -0.2 1 -0.5 2.1 -0.7 3.3 c -0.3 1.2 -0.8 2.4 -1.2 3.7 c -0.2 0.7 -0.5 1.3 -0.8 1.9 c -0.3 0.7 -0.6 1.3 -0.9 2 c -0.3 0.7 -0.7 1.3 -1.1 2 c -0.4 0.7 -0.7 1.4 -1.2 2 c -1 1.3 -1.9 2.7 -3.1 4 c -2.2 2.7 -5 5 -8.1 7.1 c -0.8 0.5 -1.6 1 -2.4 1.5 c -0.8 0.5 -1.7 0.9 -2.6 1.3 L 66 87.7 l -1.4 0.5 c -0.9 0.3 -1.8 0.7 -2.8 1 c -3.8 1.1 -7.9 1.7 -11.8 1.8 L 47 90.8 c -1 0 -2 -0.2 -3 -0.3 l -1.5 -0.2 l -0.7 -0.1 L 41.1 90 c -1 -0.3 -1.9 -0.5 -2.9 -0.7 c -0.9 -0.3 -1.9 -0.7 -2.8 -1 L 34 87.7 l -1.3 -0.6 c -0.9 -0.4 -1.8 -0.8 -2.6 -1.3 c -0.8 -0.5 -1.6 -1 -2.4 -1.5 c -3.1 -2.1 -5.9 -4.5 -8.1 -7.1 c -1.2 -1.2 -2.1 -2.7 -3.1 -4 c -0.5 -0.6 -0.8 -1.4 -1.2 -2 c -0.4 -0.7 -0.8 -1.3 -1.1 -2 c -0.3 -0.7 -0.6 -1.3 -0.9 -2 c -0.3 -0.7 -0.6 -1.3 -0.8 -1.9 c -0.4 -1.3 -0.9 -2.5 -1.2 -3.7 c -0.3 -1.2 -0.5 -2.3 -0.7 -3.3 c -0.2 -1 -0.3 -2 -0.4 -2.8 c -0.1 -0.4 -0.1 -0.8 -0.1 -1.2 c 0 -0.4 0 -0.7 0 -1.1 c 0 -0.7 0 -1.2 0 -1.7 C 10 50.5 10 50 10 50 Z"><animateTransform dur="1s" repeatCount="indefinite" to="360 50 50" from="0 50 50" type="rotate" attributeName="transform" /></path></svg>