<svg xmlns="http://www.w3.org/2000/svg" version="1.1" x="0" y="0" width="512" height="512" viewBox="0 0 512 512" enable-background="new 0 0 512 512" xml:space="preserve"><path d="M256 473.5c-58.1 0-112.7-22.6-153.8-63.7C61.1 368.7 38.5 314.1 38.5 256c0-58.1 22.6-112.7 63.7-153.8C143.3 61.1 197.9 38.5 256 38.5c58.1 0 112.7 22.6 153.8 63.7 41.1 41.1 63.7 95.7 63.7 153.8 0 58.1-22.6 112.7-63.7 153.8S314.1 473.5 256 473.5zM256 73.5C155.4 73.5 73.5 155.4 73.5 256S155.4 438.5 256 438.5 438.5 356.6 438.5 256 356.6 73.5 256 73.5z"/><path d="M247.7 105.9c5.5-0.7 11.1-0.7 16.6 0 0.1 15.3 0 30.5 0 45.8 -5.6-0.3-11.1-0.3-16.7 0.2C247.9 136.6 247.6 121.2 247.7 105.9zM188.2 120.8c5-2.1 10-4.3 15.1-6.2 6.1 14.1 11.9 28.3 17.7 42.6 -5.3 1.6-10.2 4.2-15.4 6.1C199.9 149 193.6 135.1 188.2 120.8zM291.1 157.1c5.8-14.2 11.6-28.3 17.6-42.4 5.1 1.8 10.1 3.9 15.1 6.1 -5.4 14.3-11.7 28.3-17.3 42.5C301.3 161.3 296.4 158.8 291.1 157.1zM139.2 158.1c2.8-4.6 7.4-8.4 11.6-11.9 10.5 11.1 21.9 21.4 32.2 32.7 -4.3 3.4-7.9 7.6-11.8 11.4C160.6 179.4 149.8 168.9 139.2 158.1zM361.2 146.4c4.3 2.9 8.7 7.3 11.6 11.6 -10.6 10.8-21.4 21.5-32.1 32.2 -3.7-4.1-7.7-7.9-11.7-11.7C339.8 167.8 350.4 157.1 361.2 146.4zM113.5 195.5c14.3 5.3 28.2 11.7 42.4 17.3 -1.7 5.3-4.6 10.1-6.1 15.4 -14.2-5.9-28.4-11.7-42.6-17.6C109.2 205.5 111.3 200.5 113.5 195.5zM356.1 212.8c14.2-5.6 28.1-12 42.5-17.3 2.3 4.9 4.3 10 6.2 15.1 -14.1 6-28.3 11.8-42.5 17.6C360.6 222.9 357.8 218 356.1 212.8z"/><path d="M280 330.7C280 345.2 268.2 357 253.7 357h-0.3C238.8 357 227 345.2 227 330.7l10-114.3C237 201.8 238.8 190 253.3 190h0.3C268.2 190 270 201.8 270 216.3L280 330.7z"/><rect x="168" y="371" width="48" height="38"/><rect x="232" y="371" width="48" height="38"/><rect x="294" y="371" width="48" height="38"/></svg>