<svg xmlns="http://www.w3.org/2000/svg" version="1.1" x="0" y="0" viewBox="0 0 270 270" xml:space="preserve"><path d="M135 0c-28.3 0-53.9 5.7-72.9 15.2S30 38.5 30 55v160c0 16.5 13 30.3 32.1 39.8S106.7 270 135 270s53.9-5.7 72.9-15.2S240 231.5 240 215V55c0-16.5-13-30.3-32.1-39.8S163.3 0 135 0zM135 10c26.9 0 51.3 5.5 68.5 14.1S230 43.9 230 55s-9.3 22.3-26.5 30.9S161.9 100 135 100s-51.3-5.5-68.5-14.1S40 66.1 40 55c0-11.1 9.3-22.3 26.5-30.9S108.1 10 135 10zM135 17.5c-25.9 0-49.3 5.4-65.1 13.3C54 38.7 47.5 47.8 47.5 55c0 1.4 1.1 2.5 2.5 2.5 1.4 0 2.5-1.1 2.5-2.5 0 0 0 0 0-0.1 0-3.8 4.7-12.2 19.6-19.7C87 27.9 109.8 22.5 135 22.5c1.4 0 2.5-1.1 2.5-2.5s-1.1-2.5-2.5-2.5C135 17.5 135 17.5 135 17.5zM40 78.8c5.6 6.2 13.2 11.6 22.1 16C81.1 104.3 106.7 110 135 110s53.9-5.7 72.9-15.2c8.9-4.4 16.5-9.8 22.1-16v29.5c0 11.1-9.3 22.3-26.5 30.9S161.9 153.3 135 153.3s-51.3-5.5-68.5-14.1S40 119.4 40 108.3V78.8zM40 132.1c5.6 6.2 13.2 11.6 22.1 16 19 9.5 44.7 15.2 72.9 15.2s53.9-5.7 72.9-15.2c8.9-4.4 16.5-9.8 22.1-16v29.5c0 11.1-9.3 22.3-26.5 30.9S161.9 206.7 135 206.7s-51.3-5.5-68.5-14.1S40 172.8 40 161.7V132.1zM40 185.5c5.6 6.2 13.2 11.6 22.1 16 19 9.5 44.7 15.2 72.9 15.2s53.9-5.7 72.9-15.2c8.9-4.4 16.5-9.8 22.1-16V215c0 11.1-9.3 22.3-26.5 30.9C186.3 254.5 161.9 260 135 260s-51.3-5.5-68.5-14.1C49.3 237.3 40 226.1 40 215V185.5z"/></svg>