<svg xmlns="http://www.w3.org/2000/svg" version="1.1" x="0" y="0" width="22.1" height="22.1" viewBox="0 0 22.1 22.1" xml:space="preserve"><path d="M2 16.6c0-1.1 0-14.2 0-15.3 1.1 0 12.9 0 14 0 0 0.4 0 2.3 0 4.6 0.3 0 0.5-0.1 0.8-0.1 0.1 0 0.3 0 0.4 0V0H0.7v17.9h10.4V16.6C7.3 16.6 2.7 16.6 2 16.6zM3.8 9.6h8.6c0.1-0.5 0.3-0.9 0.5-1.3H3.8V9.6z"/><rect x="3.8" y="4.1" width="10.4" height="1.3"/><path d="M3.8 13.7h8.9c0.2-0.1 0.5-0.3 0.8-0.3 -0.3-0.3-0.5-0.6-0.6-1H3.8V13.7zM16.9 13.8c1.9 0 3.4-1.5 3.4-3.4 0-1.9-1.5-3.4-3.4-3.4 -1.9 0-3.4 1.5-3.4 3.4C13.4 12.3 15 13.8 16.9 13.8zM19.6 14.4h-5.5c-1 0-1.8 0.9-1.8 2v5.5c0 0.1 0 0.1 0 0.2h9c0-0.1 0-0.1 0-0.2v-5.5C21.4 15.3 20.6 14.4 19.6 14.4z"/></svg>