<svg xmlns="http://www.w3.org/2000/svg" version="1.1" x="0" y="0" viewBox="0 0 474.6 474.6" xml:space="preserve"><path d="M255.2 102.3c-0.6-11.3-12.2-9.4-23.5-9.4C240.1 95.1 248 98.2 255.2 102.3zM134.5 73.9c-43.8 0-64 55.5-29 83.4 11.9-31.9 35.7-54.8 66.9-63.8C163.9 81.7 150.1 73.9 134.5 73.9zM44 148.6c1.8 5.7 4.1 11.2 6.8 16.4L36.4 179.5c-3.9 3.9-3.9 10.1 0 14l25.4 25.4c1.8 1.8 4.4 2.9 7 2.9 2.6 0 5.1-1 7-2.9l14.4-14.4c2.2 1.1 4.6 1.8 6.8 2.8 0-0.2 0-0.3 0-0.5 0-11.8 1.4-22.9 3.8-33.3 -17.4-11.2-28.9-30.6-28.9-52.7 0-34.6 28.1-62.7 62.7-62.7 23.4 0 43.6 13 54.4 32.1 11.5-1.4 22.3-1.4 35.4 1 -1.7-5.1-3.6-10-6.1-14.7l14.4-14.4c1.9-1.9 2.9-4.4 2.9-7 0-2.6-1-5.1-2.9-7l-25.4-25.4c-1.9-1.9-4.5-2.9-7-2.9 -2.5 0-5.1 1-7 2.9l-14.4 14.4c-5.2-2.8-10.7-5.1-16.4-6.8V9.9c0-5.5-4.4-9.9-9.9-9.9h-35.9c-5.5 0-9.9 4.4-9.9 9.9v20.4c-5.7 1.7-11.2 4.1-16.4 6.8L75.8 22.7c-1.9-1.9-4.5-2.9-7-2.9 -2.5 0-5.1 1-7 2.9L36.4 48c-1.8 1.9-2.9 4.4-2.9 7 0 2.6 1 5.1 2.9 7l14.4 14.4c-2.7 5.2-5.1 10.7-6.8 16.4H23.7c-5.5 0-9.9 4.4-9.9 9.9v35.9c0 5.5 4.4 9.9 9.9 9.9H44zM354.9 340.7c15.9-8.7 26.8-25.4 26.8-44.7 0-28.2-23-51.2-51.2-51.2 -9.9 0-19.1 3-27 7.9 -4.7 18.7-12.1 36.6-21.8 52.2C309.2 310 334.4 322.5 354.9 340.7zM460.8 276.6c0-5.9-4.8-10.7-10.7-10.7H428.1c-1.9-6.2-4.4-12.1-7.4-17.7l15.5-15.5c2-2 3.1-4.7 3.1-7.6 0-2.8-1.1-5.6-3.1-7.6l-27.4-27.4c-2.1-2.1-4.8-3.1-7.6-3.1 -2.7 0-5.5 1-7.5 3.1l-15.6 15.6c-5.6-3-11.5-5.5-17.8-7.4v-22c0-5.9-4.8-10.7-10.7-10.7H311.1c-2.6 0-4.9 1-6.7 2.6 3.3 11.9 5 24.8 5 38.6 0 8.7-0.7 17.6-2 26.4 7.2-2.7 14.9-4.3 23-4.3 37 0 67.1 30.1 67.1 67.1 0 23.6-12.3 44.4-30.9 56.3 13.5 14.8 24.2 32.3 31.2 52 1.1 0.4 2.3 0.7 3.5 0.7 2.7 0 5.5-1 7.6-3.1l27.4-27.4c2-2 3.1-4.7 3.1-7.6s-1.1-5.6-3.1-7.6l-15.6-15.6c3-5.6 5.5-11.6 7.4-17.7h22c2.8 0 5.6-1.1 7.6-3.1 2-2 3.1-4.7 3.1-7.6L460.8 276.6zM376 413.9c-16.6-48.8-60.5-82.4-111.1-87 -17 18-38 29.4-61.7 29.4 -23.8 0-44.8-11.4-61.7-29.4 -50.7 4.6-94.5 38.2-111.1 87l-9.2 27c-2.6 7.8-1.4 16.3 3.4 23 4.8 6.7 12.5 10.6 20.7 10.6h315.9c8.2 0 15.9-4 20.7-10.6 4.8-6.7 6-15.2 3.4-23L376 413.9zM120.8 206.8c0 60.6 36.9 125.6 82.4 125.6 45.5 0 82.4-65 82.4-125.6C285.6 81.2 120.8 80.9 120.8 206.8z"/></svg>