<svg xmlns="http://www.w3.org/2000/svg" version="1.1" x="0" y="0" viewBox="0 0 490 490" xml:space="preserve"><path d="M54.4 44.6H3.5C1.6 44.6 0 46.1 0 48v235.2c0 1.9 1.6 3.5 3.5 3.5h50.9c1.9 0 3.5-1.6 3.5-3.5V48C57.9 46.1 56.3 44.6 54.4 44.6zM199.4 44.6h-30.3c-1.9 0-3.5 1.6-3.5 3.5v235.2c0 1.9 1.6 3.5 3.5 3.5h30.3c1.9 0 3.5-1.6 3.5-3.5V48C202.9 46.1 201.4 44.6 199.4 44.6zM149.2 44.6h-15.1c-1.9 0-3.5 1.6-3.5 3.5v235.2c0 1.9 1.6 3.5 3.5 3.5h15.1c1.9 0 3.5-1.6 3.5-3.5V48C152.6 46.1 151.1 44.6 149.2 44.6zM111.1 44.6H80.8c-1.9 0-3.5 1.6-3.5 3.5v235.2c0 1.9 1.6 3.5 3.5 3.5h30.3c1.9 0 3.5-1.6 3.5-3.5V48C114.5 46.1 113 44.6 111.1 44.6zM365.1 44.6h-50.9c-1.9 0-3.5 1.6-3.5 3.5v114.6c0 3.6 4.9 3.5 5.4 3.5 16.7 0 34.3 3.3 47.5 10.8 1.5 0.9 3 0.1 3.6-0.3 1-0.7 1.4-1.6 1.4-2.8V48C368.6 46.1 367.1 44.6 365.1 44.6zM287.8 44.6h-30.3c-1.9 0-3.5 1.6-3.5 3.5v131c0 1.3 0.7 2.4 1.8 3 1.2 0.7 2.8 0.3 3.8-0.3 9.1-5.6 18.7-9.6 29-12.3 1.5-0.4 2.6-1.8 2.6-3.4V48C291.3 46.1 289.7 44.6 287.8 44.6zM234.6 44.6h-15.1c-1.9 0-3.5 1.6-3.5 3.5v169.7c0 1.6 1 2.9 2.6 3.4 2.1 0.6 3.2-0.5 3.9-1.6 4.6-7.1 9-13.5 14.7-19.4 0.6-0.6 1-1.5 1-2.4V48C238.1 46.1 236.5 44.6 234.6 44.6z"/><path d="M479.9 397.2l-82.9-65.5c9.6-14.8 14.9-32 15.1-50 0.2-24.9-9.3-48.4-26.7-66.2 -17.7-18-41.3-27.9-66.5-27.9 -24.6 0-47.8 9.5-65.4 26.7 -17.8 17.5-27.7 40.8-27.9 65.7 -0.2 24.9 9.3 48.4 26.7 66.2 17.7 18 41.3 27.9 66.5 27.9 18 0 35.2-5.1 50-14.5 0 0 66.4 69.1 78.2 79.3 12.9 11.2 28.1 7.1 37.2-4.3C493.4 423 491.4 406.3 479.9 397.2zM272 327c-12.3-12.5-19-29.1-18.9-46.7 0.2-17.6 7.1-34 19.7-46.4 12.4-12.2 28.8-18.9 46.1-18.9 17.8 0 34.5 7 46.9 19.7 12.3 12.5 19 29.1 18.9 46.7 -0.2 17.6-7.1 34-19.7 46.4 -12.4 12.2-28.8 18.9-46.1 18.9C301.1 346.6 284.4 339.6 272 327z"/><path d="M349.6 292.9c-6.6 0-12-5.4-12-12 0-10.4-8.5-18.9-18.9-18.9 -6.6 0-12-5.4-12-12s5.4-12 12-12c23.6 0 42.8 19.2 42.8 42.8C361.5 287.6 356.2 292.9 349.6 292.9z"/></svg>