<svg xmlns="http://www.w3.org/2000/svg" version="1.1" x="0" y="0" viewBox="0 0 236.8 236.8" xml:space="preserve"><style>.s0{fill:#000002;}</style><path d="M40.1 71.3h50c4.1 0 7.5-3.4 7.5-7.5 0-4.1-3.4-7.5-7.5-7.5h-50c-4.1 0-7.5 3.4-7.5 7.5C32.6 67.9 35.9 71.3 40.1 71.3zM40.1 106.6h109.3c4.1 0 7.5-3.4 7.5-7.5 0-4.1-3.4-7.5-7.5-7.5H40.1c-4.1 0-7.5 3.4-7.5 7.5C32.6 103.2 35.9 106.6 40.1 106.6zM188.3 159.4l8.4-9.8c1.8-2.1 1.6-5.2-0.5-7.1 -2.1-1.8-5.2-1.6-7.1 0.5l-8.4 9.8 -9.8-8.4c-2.1-1.8-5.2-1.6-7.1 0.5 -1.8 2.1-1.6 5.3 0.5 7.1l9.8 8.4 -8.4 9.8c-1.8 2.1-1.6 5.3 0.5 7.1 0.9 0.8 2.1 1.2 3.3 1.2 1.4 0 2.8-0.6 3.8-1.7l8.4-9.8 9.8 8.4c0.9 0.8 2.1 1.2 3.3 1.2 1.4 0 2.8-0.6 3.8-1.7 1.8-2.1 1.6-5.2-0.5-7.1L188.3 159.4zM236.7 159.6c0-28.1-20.9-51.3-48-55V69.4c0-7.5-4-17.1-9.3-22.4L141.4 9.2C136.1 4 126.5 0 119 0H17.6c-9.6 0-17.5 7.9-17.5 17.5v201.8c0 9.6 7.9 17.5 17.5 17.5h153.7c9.6 0 17.5-7.9 17.5-17.5v-4.7C215.8 210.9 236.7 187.7 236.7 159.6zM167.5 56.3h-30.4c-1.4 0-2.5-1.1-2.5-2.5V23.6L167.5 56.3zM171.2 221.8H17.6c-1.4 0-2.5-1.1-2.5-2.5V17.5c0-1.4 1.1-2.5 2.5-2.5h101.4c0.2 0 0.4 0 0.6 0v38.8c0 9.6 7.9 17.5 17.5 17.5h36.7v33.4c-15.3 2.1-28.6 10.4-37.3 22.2 -0.2 0-0.5 0-0.7 0H40.1c-4.1 0-7.5 3.4-7.5 7.5 0 4.1 3.4 7.5 7.5 7.5h88.6c-1.9 5.6-2.9 11.6-2.9 17.8 0 8 1.7 15.6 4.8 22.5H99.4c-4.1 0-7.5 3.4-7.5 7.5 0 4.1 3.4 7.5 7.5 7.5h36.3c1.4 0 2.6-0.4 3.8-1 8.6 9.9 20.7 16.6 34.3 18.5v4.7C173.7 220.7 172.6 221.8 171.2 221.8zM181.2 200.1c-22.3 0-40.5-18.2-40.5-40.5 0-22.3 18.2-40.5 40.5-40.5 22.3 0 40.5 18.2 40.5 40.5C221.7 181.9 203.6 200.1 181.2 200.1z" fill="#000002"/></svg>