<svg xmlns="http://www.w3.org/2000/svg" version="1.1" x="0" y="0" width="105.4" height="105.4" viewBox="0 0 105.4 105.4" xml:space="preserve"><path d="M103.7 63l-9.2-9.2c-1.1-1.1-2.5-1.7-4-1.7 -1.5 0-2.9 0.6-4 1.7 -1.1 1.1-1.7 2.5-1.7 4 0 1.2 0.4 2.3 1 3.2h-5.1V22.4c0-2.1-1.7-3.7-3.7-3.7H3.7C1.7 18.7 0 20.4 0 22.4v60.5c0 2.1 1.7 3.7 3.7 3.7h60c0 0 0-0.1 0-0.1h13.4c2.1 0 3.7-1.7 3.7-3.7V72.4h4.4c-0.6 0.8-0.9 1.8-1 2.9 -0.1 1.5 0.4 3 1.4 4.1 1.1 1.2 2.6 1.9 4.3 1.9 1.4 0 2.7-0.5 3.7-1.4l9.8-8.6c1.2-1 1.9-2.5 1.9-4.1C105.4 65.7 104.8 64.1 103.7 63zM73.4 23c1.3 0 2.4 1.1 2.4 2.4 0 1.3-1.1 2.4-2.4 2.4 -1.3 0-2.4-1.1-2.4-2.4C70.9 24.1 72 23 73.4 23zM62.7 23c1.3 0 2.4 1.1 2.4 2.4 0 1.3-1.1 2.4-2.4 2.4 -1.3 0-2.4-1.1-2.4-2.4C60.2 24.1 61.3 23 62.7 23zM52 23c1.3 0 2.4 1.1 2.4 2.4 0 1.3-1.1 2.4-2.4 2.4 -1.3 0-2.4-1.1-2.4-2.4C49.6 24.1 50.7 23 52 23zM77.6 82.8c0 0.3-0.2 0.5-0.5 0.5H17.3c0 0 0 0.1 0 0.1H3.7c-0.3 0-0.5-0.2-0.5-0.5V32.5h73.9c0.2 0 0.4 0 0.5-0.1v0.1l0 0v24.9h0v3.7H62.6c-3.1 0-5.6 2.5-5.6 5.6s2.5 5.6 5.6 5.6h15V82.8zM101.5 69.4l-9.8 8.6c-0.6 0.5-1.3 0.8-2.1 0.8 -0.9 0-1.7-0.4-2.4-1.1 -1.1-1.3-1-3.3 0.3-4.4l3.9-3.4H62.3c-1.7 0-3.1-1.4-3.1-3.1s1.4-3.1 3.1-3.1H91.5l-3.5-3.5c-1.2-1.2-1.2-3.2 0-4.4 1.2-1.2 3.2-1.2 4.4 0l9.2 9.2c0.6 0.6 0.9 1.5 0.9 2.3C102.5 68 102.1 68.8 101.5 69.4z"/></svg>