<svg xmlns="http://www.w3.org/2000/svg" version="1.1" x="0" y="0" width="101.8" height="101.8" viewBox="0 0 101.8 101.8" xml:space="preserve"><path d="M96.2 55.1H80.8V20.7c0-2.1-1.7-3.7-3.7-3.7H3.7C1.7 16.9 0 18.6 0 20.7v60.5c0 2.1 1.7 3.7 3.7 3.7h60c0 0 0-0.1 0-0.1H77.1c2.1 0 3.7-1.7 3.7-3.7V66.4h15.4c3.1 0 5.6-2.5 5.6-5.6S99.3 55.1 96.2 55.1zM73.4 21.3c1.3 0 2.4 1.1 2.4 2.4 0 1.3-1.1 2.4-2.4 2.4 -1.3 0-2.4-1.1-2.4-2.4C70.9 22.3 72 21.3 73.4 21.3zM62.7 21.3c1.3 0 2.4 1.1 2.4 2.4 0 1.3-1.1 2.4-2.4 2.4 -1.3 0-2.4-1.1-2.4-2.4C60.2 22.3 61.3 21.3 62.7 21.3zM52 21.3c1.3 0 2.4 1.1 2.4 2.4 0 1.3-1.1 2.4-2.4 2.4 -1.3 0-2.4-1.1-2.4-2.4C49.6 22.3 50.7 21.3 52 21.3zM77.6 81.1c0 0.3-0.2 0.5-0.5 0.5H17.3c0 0 0 0.1 0 0.1H3.7c-0.3 0-0.5-0.2-0.5-0.5V30.8h73.9c0.2 0 0.4 0 0.5-0.1v0.1l0 0v24.3h-4.7c0.7-0.9 1-2.1 1-3.2 0-1.5-0.6-2.9-1.7-4 -1.1-1.1-2.5-1.7-4-1.7 -1.5 0-2.9 0.6-4 1.7l-9.2 9.2c-1.1 1.1-1.7 2.6-1.7 4.2 0.1 1.6 0.8 3 1.9 4.1l9.8 8.6c1 0.9 2.3 1.4 3.7 1.4 1.6 0 3.2-0.7 4.3-1.9 1-1.1 1.5-2.6 1.4-4.1 -0.1-1-0.4-2-1-2.9h4.1V81.1zM96.5 63.9H67.4l3.9 3.4c1.3 1.1 1.4 3.1 0.3 4.4 -0.6 0.7-1.5 1.1-2.4 1.1 -0.7 0-1.5-0.3-2.1-0.8l-9.8-8.6c-0.7-0.6-1-1.4-1.1-2.3 0-0.9 0.3-1.7 0.9-2.3l9.2-9.2c1.2-1.2 3.2-1.2 4.4 0 1.2 1.2 1.2 3.2 0 4.4l-3.5 3.5h29.2c1.7 0 3.1 1.4 3.1 3.1C99.7 62.5 98.3 63.9 96.5 63.9z"/></svg>