<svg xmlns="http://www.w3.org/2000/svg" version="1.1" x="0" y="0" width="174.6" height="174.6" viewBox="0 0 174.6 174.6" xml:space="preserve"><path d="M111.6 77.6V58.2c0 5.4-10.9 9.7-24.3 9.7 -13.4 0-24.2-4.3-24.2-9.7v19.4c0 5.4 10.9 9.7 24.3 9.7C100.7 87.3 111.6 83 111.6 77.6zM87.3 38.8c13.4 0 24.3-4.3 24.3-9.7V9.7C111.6 4.3 100.7 0 87.3 0c-13.4 0-24.2 4.3-24.2 9.7V29.1C63 34.5 73.9 38.8 87.3 38.8zM87.3 2.4c13.3 0 21.8 4.3 21.8 7.3 0 3-8.5 7.3-21.8 7.3 -13.3 0-21.8-4.3-21.8-7.3C65.5 6.7 74 2.4 87.3 2.4zM38.8 155.2c-13.4 0-24.2-4.3-24.2-9.7v19.4c0 5.4 10.9 9.7 24.3 9.7s24.2-4.3 24.2-9.7v-19.4C63 150.9 52.2 155.2 38.8 155.2zM135.8 130.9c-13.4 0-24.2-4.3-24.2-9.7v11.4H63v-11.4c0 5.4-10.9 9.7-24.2 9.7 -13.4 0-24.2-4.3-24.2-9.7v19.4c0 5.4 10.9 9.7 24.3 9.7 13.4 0 24.2-4.3 24.2-9.7v-1.7h48.5v1.7c0 5.4 10.9 9.7 24.2 9.7 13.4 0 24.3-4.3 24.3-9.7v-19.4C160 126.6 149.2 130.9 135.8 130.9zM135.8 155.2c-13.4 0-24.2-4.3-24.2-9.7v19.4c0 5.4 10.9 9.7 24.2 9.7 13.4 0 24.3-4.3 24.3-9.7v-19.4C160 150.9 149.2 155.2 135.8 155.2zM139.6 87.4l-28-44.8v-8.7c0 5.4-10.9 9.7-24.2 9.7 -13.4 0-24.2-4.3-24.2-9.7v8.7L35 87.4C23.4 88.2 14.6 92.2 14.6 97v19.4c0 5.4 10.9 9.7 24.3 9.7 13.4 0 24.2-4.3 24.2-9.7V97c0-4.9-9-8.9-20.7-9.6l20.8-33.4c1 5 11.3 9 24.1 9s23.1-4 24.1-9l20.9 33.4c-11.7 0.7-20.7 4.7-20.7 9.6v19.4c0 5.4 10.9 9.7 24.2 9.7 13.4 0 24.2-4.3 24.2-9.7V97C160 92.2 151.2 88.2 139.6 87.4zM60.6 97c0 3-8.5 7.3-21.8 7.3 -13.3 0-21.8-4.3-21.8-7.3 0-3 8.5-7.3 21.8-7.3C52.1 89.7 60.6 94 60.6 97zM135.8 104.3c-13.3 0-21.8-4.3-21.8-7.3 0-3 8.5-7.3 21.8-7.3 13.3 0 21.8 4.3 21.8 7.3C157.6 100 149.1 104.3 135.8 104.3z"/></svg>