<svg xmlns="http://www.w3.org/2000/svg" version="1.1" x="0" y="0" viewBox="0 0 250.3 250.3" xml:space="preserve"><path d="M244.2 214.6l-54.4-54.4c-0.3-0.3-0.6-0.5-0.9-0.8 10.7-16.2 16.9-35.7 16.9-56.6C205.8 46.1 159.7 0 102.9 0S0 46.1 0 102.9c0 56.8 46.1 102.9 102.9 102.9 20.9 0 40.3-6.2 56.6-16.9 0.3 0.3 0.5 0.6 0.8 0.9l54.4 54.4c8.2 8.2 21.4 8.2 29.6 0C252.4 236 252.4 222.8 244.2 214.6zM102.9 170.1c-37.1 0-67.2-30.1-67.2-67.2 0-37.1 30.1-67.2 67.2-67.2 37.1 0 67.2 30.1 67.2 67.2C170.1 140 140 170.1 102.9 170.1z" fill="white"/></svg>