<svg xmlns="http://www.w3.org/2000/svg" version="1.1" x="0" y="0" width="298.3" height="298.3" viewBox="0 0 298.3 298.3" xml:space="preserve"><path d="M49.5 46.6l-36.2-22.6C6 19.4 0 22.7 0 31.4v47.1c0 8.7 6 12 13.3 7.4l36.2-22.6C56.8 58.7 56.8 51.2 49.5 46.6zM282.6 31.4H94.2c-8.7 0-15.7 7-15.7 15.7v15.7c0 8.7 7 15.7 15.7 15.7h188.4c8.7 0 15.7-7 15.7-15.7V47.1C298.3 38.4 291.3 31.4 282.6 31.4zM13.3 180.1l36.2-22.6c7.4-4.6 7-11.5-0.7-15.3L14 124.8C6.3 120.9 0 124.8 0 133.5v39.3C0 181.4 6 184.7 13.3 180.1zM282.6 125.6H94.2c-8.7 0-15.7 7-15.7 15.7v15.7c0 8.7 7 15.7 15.7 15.7h188.4c8.7 0 15.7-7 15.7-15.7v-15.7C298.3 132.6 291.3 125.6 282.6 125.6zM49.5 235l-36.2-22.6C6 207.8 0 211.1 0 219.8v47.1c0 8.7 6 12 13.3 7.4l36.2-22.6C56.8 247.1 56.8 239.6 49.5 235zM282.6 219.8H94.2c-8.7 0-15.7 7-15.7 15.7v15.7c0 8.7 7 15.7 15.7 15.7h188.4c8.7 0 15.7-7 15.7-15.7v-15.7C298.3 226.8 291.3 219.8 282.6 219.8z" fill="white"/></svg>